<?xml version="1.0" standalone="no"?>
<!DOCTYPE svg PUBLIC "-//W3C//DTD SVG 20010904//EN"
 "http://www.w3.org/TR/2001/REC-SVG-20010904/DTD/svg10.dtd">
<svg version="1.0" xmlns="http://www.w3.org/2000/svg"
 width="467.000000pt" height="864.000000pt" viewBox="0 0 467.000000 864.000000"
 preserveAspectRatio="xMidYMid meet">
<metadata>
Created by potrace 1.15, written by Peter Selinger 2001-2017
</metadata>
<g transform="translate(0.000000,864.000000) scale(0.100000,-0.100000)"
fill="#000000" stroke="none">
<path d="M582 8614 c-73 -19 -102 -36 -156 -91 -65 -65 -104 -145 -120 -243
l-5 -35 19 35 19 35 1 -162 c0 -156 -1 -163 -20 -163 -17 0 -20 -7 -20 -49 0
-44 2 -49 20 -44 20 5 20 -1 20 -776 0 -774 0 -781 -20 -781 -20 0 -20 -6 -20
-2887 0 -3074 -1 -2963 46 -3054 9 -19 41 -59 71 -90 66 -70 141 -105 253
-120 58 -8 546 -10 1694 -6 1451 4 1617 7 1670 21 104 29 165 75 228 171 75
114 69 -31 69 1892 1 1587 2 1728 17 1739 14 10 14 16 4 39 -10 21 -13 152
-13 536 0 314 -3 511 -9 514 -15 9 -12 25 5 25 10 0 15 -16 18 -62 3 -61 3
-61 5 16 2 66 0 77 -13 72 -13 -5 -15 38 -15 349 0 348 0 354 21 360 17 6 19
12 13 38 -3 18 -10 34 -15 35 -5 2 -9 8 -9 13 0 6 4 8 8 5 5 -3 6 12 4 32 -3
20 -5 123 -6 227 -1 147 2 189 12 188 6 -2 12 7 12 19 0 12 -3 19 -6 15 -4 -3
-13 0 -20 8 -12 11 -14 135 -14 736 0 397 -2 720 -5 718 -2 -3 -6 -583 -7
-1290 -2 -706 -5 -1372 -8 -1479 l-5 -195 -5 290 c-3 160 -6 829 -8 1488 l-3
1197 21 0 c19 0 20 6 19 113 -2 122 -4 119 -15 -18 l-8 -90 -11 100 c-7 55
-10 142 -7 194 2 52 1 91 -4 88 -5 -3 -9 13 -9 34 -1 21 1 39 2 39 2 0 13 -19
23 -42 l20 -43 -6 40 c-13 81 -73 186 -103 178 -9 -2 -25 5 -35 16 -11 12 -24
21 -29 21 -5 0 11 -22 37 -50 25 -27 46 -52 46 -56 0 -3 -21 18 -47 47 -27 29
-48 57 -48 62 0 6 -6 12 -14 15 -9 3 -11 0 -6 -9 5 -8 4 -11 -1 -6 -5 5 -9 13
-9 19 0 6 -23 20 -50 31 -45 19 -77 22 -300 28 -137 3 -278 8 -313 10 -34 2
-62 1 -62 -2 0 -7 -2724 -3 -2737 4 -4 2 -32 -2 -61 -9z m3430 -87 c26 -10 52
-25 58 -32 7 -9 -8 -6 -42 8 -50 21 -73 22 -453 27 -220 3 -861 7 -1424 8
-564 1 -1027 4 -1030 7 -2 3 636 4 1420 3 1350 -3 1426 -4 1471 -21z m-470
-902 c-3 -17 0 -25 9 -25 8 0 23 11 33 25 29 39 37 30 34 -37 l-3 -63 -62 -3
c-35 -2 -63 0 -63 4 0 5 12 21 27 36 l27 28 -42 0 c-44 0 -60 15 -48 45 4 10
19 15 49 15 42 0 44 -1 39 -25z m618 -3105 l0 -2960 -1845 0 -1845 0 0 2960 0
2960 1845 0 1845 0 0 -2960z m-3825 1273 c-3 -247 -8 -449 -9 -451 -4 -3 -16
605 -16 771 0 111 2 127 16 127 15 0 16 -37 9 -447z m2031 -4386 c55 -48 20
-137 -55 -137 -74 0 -109 83 -56 135 31 32 75 32 111 2z m1062 -53 c4 -76 -6
-86 -85 -82 l-58 3 -3 73 -3 73 73 -3 73 -3 3 -61z"/>
<path d="M726 7327 c-56 -31 -79 -75 -78 -149 2 -120 97 -257 224 -323 31 -16
62 -40 67 -52 8 -18 19 -23 48 -23 47 0 66 -12 61 -36 -3 -16 -15 -20 -69 -24
-89 -7 -122 -36 -83 -74 17 -18 94 -22 94 -6 0 6 -18 10 -40 10 -28 0 -43 5
-47 16 -9 24 15 34 85 34 57 0 63 2 74 26 17 36 0 58 -48 62 -37 3 -64 16 -64
32 0 4 20 15 44 24 64 25 175 131 211 202 26 50 30 71 30 136 0 71 -2 79 -30
109 -65 69 -137 77 -216 24 l-52 -36 -26 25 c-53 51 -122 59 -185 23z m127 -1
c18 -7 46 -28 61 -47 l28 -33 27 32 c34 41 94 66 138 57 45 -8 100 -59 114
-104 32 -108 -75 -291 -213 -362 -21 -10 -50 -19 -65 -19 -69 0 -206 118 -253
217 -32 67 -37 148 -12 193 19 35 89 80 124 80 10 0 33 -6 51 -14z"/>
<path d="M1858 6073 c248 -2 656 -2 905 0 248 1 45 2 -453 2 -498 0 -701 -1
-452 -2z"/>
<path d="M1574 3341 c-49 -30 -64 -74 -64 -190 0 -119 14 -161 62 -191 32 -19
49 -20 742 -20 687 0 710 1 740 20 53 32 61 59 61 196 0 117 -1 124 -25 149
-53 57 -20 55 -782 55 -670 0 -704 -1 -734 -19z m1446 -7 c14 -7 36 -24 50
-39 23 -24 25 -36 28 -130 4 -117 -9 -159 -57 -188 -27 -16 -87 -17 -726 -17
-764 0 -738 -2 -770 60 -10 20 -15 59 -15 130 0 133 18 168 97 189 45 12 1366
7 1393 -5z"/>
</g>
</svg>
