<?xml version="1.0" standalone="no"?>
<!DOCTYPE svg PUBLIC "-//W3C//DTD SVG 20010904//EN"
 "http://www.w3.org/TR/2001/REC-SVG-20010904/DTD/svg10.dtd">
<svg version="1.0" xmlns="http://www.w3.org/2000/svg"
 width="467.000000pt" height="864.000000pt" viewBox="0 0 467.000000 864.000000"
 preserveAspectRatio="xMidYMid meet">
<metadata>
Created by potrace 1.15, written by Peter Selinger 2001-2017
</metadata>
<g transform="translate(0.000000,864.000000) scale(0.100000,-0.100000)"
fill="#000000" stroke="none">
<path d="M582 8614 c-73 -19 -102 -36 -156 -91 -65 -65 -104 -145 -120 -243
l-5 -35 19 35 19 35 1 -162 c0 -156 -1 -163 -20 -163 -17 0 -20 -7 -20 -49 0
-44 2 -49 20 -44 20 5 20 -1 20 -776 0 -774 0 -781 -20 -781 -20 0 -20 -6 -20
-2887 0 -3074 -1 -2963 46 -3054 9 -19 41 -59 71 -90 66 -70 141 -105 253
-120 58 -8 546 -10 1694 -6 1451 4 1617 7 1670 21 104 29 165 75 228 171 75
114 69 -31 69 1892 1 1587 2 1728 17 1739 14 10 14 16 4 39 -10 21 -13 152
-13 536 0 314 -3 511 -9 514 -15 9 -12 25 5 25 10 0 15 -16 18 -62 3 -61 3
-61 5 16 2 66 0 77 -13 72 -13 -5 -15 38 -15 349 0 348 0 354 21 360 17 6 19
12 13 38 -3 18 -10 34 -15 35 -5 2 -9 8 -9 13 0 6 4 8 8 5 5 -3 6 12 4 32 -3
20 -5 123 -6 227 -1 147 2 189 12 188 6 -2 12 7 12 19 0 12 -3 19 -6 15 -4 -3
-13 0 -20 8 -12 11 -14 135 -14 736 0 397 -2 720 -5 718 -2 -3 -6 -583 -7
-1290 -2 -706 -5 -1372 -8 -1479 l-5 -195 -5 290 c-3 160 -6 829 -8 1488 l-3
1197 21 0 c19 0 20 6 19 113 -2 122 -4 119 -15 -18 l-8 -90 -11 100 c-7 55
-10 142 -7 194 2 52 1 91 -4 88 -5 -3 -9 13 -9 34 -1 21 1 39 2 39 2 0 13 -19
23 -42 l20 -43 -6 40 c-13 81 -73 186 -103 178 -9 -2 -25 5 -35 16 -11 12 -24
21 -29 21 -5 0 11 -22 37 -50 25 -27 46 -52 46 -56 0 -3 -21 18 -47 47 -27 29
-48 57 -48 62 0 6 -6 12 -14 15 -9 3 -11 0 -6 -9 5 -8 4 -11 -1 -6 -5 5 -9 13
-9 19 0 6 -23 20 -50 31 -45 19 -77 22 -300 28 -137 3 -278 8 -313 10 -34 2
-62 1 -62 -2 0 -7 -2724 -3 -2737 4 -4 2 -32 -2 -61 -9z m3430 -87 c26 -10 52
-25 58 -32 7 -9 -8 -6 -42 8 -50 21 -73 22 -453 27 -220 3 -861 7 -1424 8
-564 1 -1027 4 -1030 7 -2 3 636 4 1420 3 1350 -3 1426 -4 1471 -21z m-470
-902 c-3 -17 0 -25 9 -25 8 0 23 11 33 25 29 39 37 30 34 -37 l-3 -63 -62 -3
c-35 -2 -63 0 -63 4 0 5 12 21 27 36 l27 28 -42 0 c-44 0 -60 15 -48 45 4 10
19 15 49 15 42 0 44 -1 39 -25z m-372 -1215 l0 -110 -855 0 -855 0 0 110 0
110 855 0 855 0 0 -110z m-2835 -617 c-3 -247 -8 -449 -9 -451 -4 -3 -16 605
-16 771 0 111 2 127 16 127 15 0 16 -37 9 -447z m1375 -40 c1 -17 1 -17 11 0
8 13 24 17 77 17 38 0 73 -5 79 -11 8 -8 17 -7 32 2 16 11 23 11 33 1 8 -8 15
-9 25 -1 10 9 13 8 13 -5 0 -9 7 -16 15 -16 8 0 15 7 15 15 0 8 5 15 10 15 6
0 10 -15 10 -34 0 -19 -4 -38 -10 -41 -5 -3 -10 1 -10 9 0 22 -30 20 -30 -1
-1 -17 -1 -17 -14 0 -12 15 -14 16 -20 2 -7 -19 -30 -19 -47 1 -11 14 -13 14
-21 0 -5 -9 -16 -16 -23 -16 -8 0 -15 -4 -15 -10 0 -5 -4 -10 -10 -10 -5 0
-10 21 -10 47 0 47 -15 51 -22 5 -4 -31 -22 -33 -26 -2 -5 34 -16 44 -31 26
-9 -11 -8 -17 3 -29 21 -21 7 -31 -16 -10 -17 15 -18 15 -18 0 0 -10 -4 -17
-10 -17 -5 0 -10 18 -10 40 0 22 5 40 10 40 6 0 10 -8 10 -17z m1460 -473 l0
-110 -855 0 -855 0 0 110 0 110 855 0 855 0 0 -110z m0 -1135 l0 -245 -855 0
-855 0 0 245 0 245 855 0 855 0 0 -245z m0 -840 l0 -245 -855 0 -855 0 0 245
0 245 855 0 855 0 0 -245z m-804 -1898 c55 -48 20 -137 -55 -137 -74 0 -109
83 -56 135 31 32 75 32 111 2z m1062 -53 c4 -76 -6 -86 -85 -82 l-58 3 -3 73
-3 73 73 -3 73 -3 3 -61z"/>
</g>
</svg>
